<?xml version="1.0" encoding="utf-8"?>
<!-- Generator: Adobe Illustrator 19.2.1, SVG Export Plug-In . SVG Version: 6.00 Build 0)  -->
<svg version="1.1" id="layer" xmlns="http://www.w3.org/2000/svg" xmlns:xlink="http://www.w3.org/1999/xlink" x="0px" y="0px"
	 viewBox="0 0 652 652" style="enable-background:new 0 0 652 652;" xml:space="preserve">
<style type="text/css">
	.st0{fill:#DE001D;}
	.st1{fill:#000130;}
	.st2{fill:#DB1017;}
	.st3{fill:#C20016;}
</style>
<g>
	<path class="st0" d="M519.5,131.8l-5,174.5C487.3,492.5,355.5,555,325.2,562c-2,0.5-4.6,0.9-4.6,0.9s-2.6-0.5-4.6-0.9
		c-30.3-7-162.2-69.4-189.4-255.7l-5-174.5v-19.7c0,0,68.5-31.8,199-31.8s199,31.8,199,31.8V131.8z M523.4,104.6
		c-2.9-1.3-71.7-32.6-202.6-32.6c-130.9,0-199.7,31.3-202.6,32.6l-5,2.3v25.3l5,175.1l0.1,0.5c6.4,43.9,19.1,84.4,37.7,120.3
		c15.5,29.9,35.1,56.7,58.3,79.7c41.5,41.1,83.5,59.1,100,62.9c2.2,0.5,4.9,1,5,1l1.5,0.3l1.5-0.3c0.1,0,2.8-0.5,5-1
		c16.4-3.8,58.5-21.8,100-62.9c23.2-23,42.8-49.8,58.3-79.7c18.6-35.9,31.3-76.4,37.7-120.3l0.1-0.5l5-175.1v-25.3L523.4,104.6z"/>
	<path class="st1" d="M320.6,80.3c-130.5,0-199,31.8-199,31.8v19.7l5,174.5C153.8,492.5,285.7,555,316,562c2,0.5,4.6,0.9,4.6,0.9
		s2.6-0.5,4.6-0.9c30.3-7,162.2-69.4,189.4-255.7l5-174.5v-19.7C519.5,112.1,451,80.3,320.6,80.3"/>
	<path class="st0" d="M146,260c0.8,8.1,2.2,17.8,8.9,23.4c7.5,6.5,19.9,3.9,28.4,2.1c7.2-1.6,14.2-4.4,21-7.7
		c-1.9-7.6-3.9-15.3-5.8-22.9c-4,1.9-8.6,3.5-12.9,4.5c-5.9,1.3-9.2,0-10.6-6c-3.5-15-1.6-32.3-1.6-47.6c0-15.4-1.5-32.1,1.4-47.4
		c1.2-6,3.8-9.6,10.1-10.8c4.3-0.8,8.8-1.4,13.2-1.2c1.8-9.1,3.6-18.2,5.4-27.3c-6.7-0.5-13.5,0.3-19.9,1.6
		c-10.9,2.2-22.9,6.5-29.5,16.2c-5.4,8.2-7.1,18.2-8,27.7c-1.5,15.8-1,31.7-1,47.5C144.9,228,144.4,244.1,146,260"/>
	<path class="st0" d="M244,199c1.1-11,2.1-22,3.2-33.1c1,10.8,2,21.6,2.9,32.4c1.1,8.3,2.1,16.6,3.2,24.9c-4.1,0.4-8.3,0.9-12.4,1.4
		C241.9,216.1,243,207.5,244,199 M237.7,251.6c6.2-0.8,12.5-1.5,18.7-2.1c1.1,7.9,2.1,15.9,3.2,23.8c9.6-0.9,19.3-1.6,28.9-2.1
		c-8.2-54-16.4-107.9-24.6-161.9c-10.8,1-21.6,2.2-32.4,3.6c-8.1,55.8-16.2,111.5-24.2,167.3c9.2-1.6,18.4-3,27.6-4.2
		C235.8,267.9,236.8,259.7,237.7,251.6"/>
	<path class="st0" d="M296.7,125.4c-4.5,11.3-2.4,24.4,1.9,35.5c8.7,22.3,17.4,44.6,26,66.9c3.6,9.1,4.2,18.4-8.1,18.5
		c-6.3,0-12.8-0.4-19-1.5c-2,8.5-4.1,17-6.1,25.5c8.8,1.4,17.8,1.7,26.7,1.6c14.3,0,30.5-4,35-19.1c3.7-12.4-0.2-26.5-4.7-38.3
		c-8-21.1-16.1-42.2-24.2-63.2c-3.3-8.6-3-18.2,8.8-17.9c4.2,0.1,8.6,0.3,12.7,1.4c2.2-8.8,4.4-17.6,6.6-26.3
		c-7-1.5-14.3-2-21.5-2.1C316.5,106.2,302.1,111.6,296.7,125.4"/>
	<path class="st0" d="M416.9,252c-9.3-1.3-18.6-2.4-27.9-3.4v-44.1c9.1,0.9,18.2,2,27.2,3.3v-26.1c-9.1-1.3-18.1-2.4-27.2-3.3v-40.6
		c9.3,1,18.6,2.1,27.9,3.4v-26.6c-18.6-2.6-37.2-4.5-55.9-5.7v162.7c18.7,1.2,37.3,3,55.9,5.7V252z"/>
	<path class="st0" d="M444.9,281.7c9.2,1.7,18.4,3.6,27.6,5.7v-49.6c8.1-35.7,16.2-71.4,24.3-107c-9.1-2.4-18.2-4.7-27.4-6.7
		c-3.4,20.6-6.8,41.3-10.2,61.9c-3.3-22-6.7-44.1-10-66.1c-9.5-1.8-19.1-3.4-28.6-4.9c8.2,38.7,16.3,77.3,24.4,116V281.7z"/>
	<path class="st0" d="M217.5,304.1c1-0.2,1.6-0.2,2.6-0.4c5-0.9,7.9,0.2,7.8,5.3c0,5-2.4,7.1-7.5,7.8c-1.2,0.2-1.8,0.3-3,0.5V304.1z
		 M235.4,308.1c0-9.9-6.3-12.3-15.4-10.9c-3.3,0.5-6.7,1-10,1.6v26.1c3.3-0.5,6.6-1.1,10-1.6C229.3,321.9,235.4,317.9,235.4,308.1"
		/>
	<path class="st0" d="M269.3,298.2v-6.6c-7.1,0.6-14.2,1.2-21.3,2v26.1c7.1-0.8,14.3-1.4,21.5-2v-6.3c-4.7,0.4-9.3,0.8-14,1.2v-3.7
		c4.5-0.4,9-0.8,13.5-1.2v-6.4c-4.5,0.4-9,0.7-13.5,1.2v-3.2C260.1,299,264.7,298.6,269.3,298.2"/>
	<path class="st0" d="M315.2,315.8v-26.1c-3.3,0-6.5,0.1-9.8,0.2c-2,5.2-4,10.4-6.1,15.7c-2-5.1-4-10.2-6-15.3
		c-3.3,0.1-6.5,0.3-9.8,0.5v26c2.7-0.1,4.1-0.2,6.8-0.3v-15c2,4.9,4,9.8,5.9,14.8c2.2-0.1,3.4-0.1,5.6-0.2c2-5.1,4-10.2,6-15.3v15.1
		C310.3,315.8,312.8,315.8,315.2,315.8"/>
	<path class="st0" d="M341,310.1c-4.3-0.2-7-2.9-7-7.1c0-4.2,2.7-6.8,7-6.7c4.2,0.1,7,3.1,7,7.1C348,307.4,345.2,310.3,341,310.1
		 M341,289.6c-8.4-0.2-14.6,4.6-14.6,13.2c0,8.6,6.2,13.4,14.6,13.7c8.5,0.3,14.6-4.2,14.6-12.9C355.6,295,349.6,289.8,341,289.6"/>
	<path class="st0" d="M374.8,291.8c-2.7-0.2-5.4-0.4-8-0.6v26.1c2.9,0.2,4.3,0.3,7.2,0.5v-15.2c3.9,5.4,7.7,10.8,11.6,16.2
		c2.8,0.3,4.1,0.4,6.9,0.7v-26.1c-2.9-0.3-4.3-0.4-7.1-0.7v13.8C381.8,301.6,378.3,296.7,374.8,291.8"/>
	<path class="st0" d="M405.2,302.8c0,6.4,6,8.4,11.4,9.8c3.8,1,5.5,1.6,5.5,2.9c0,1.4-0.2,2.1-5.3,1.4c-3.5-0.5-6.9-2-9.6-4.1
		c-1.5,1.9-2.2,2.9-3.7,4.8c3.6,3.2,8.9,4.8,13.6,5.4c5.6,0.7,12.4,0.5,12.4-6.6c0.1-6.1-5.9-8.3-11-9.7c-4-1-5.9-1.5-5.9-3
		c0-1.3,0.7-1.9,4.4-1.2c2.6,0.5,5.4,1.4,7.6,3.1c1.6-2,2.4-3,4-5c-3.2-2.5-7.6-3.8-11.6-4.4C411.4,295.3,405.2,296.1,405.2,302.8"
		/>
	<path class="st2" d="M320.8,351.6C320.8,351.6,320.7,351.6,320.8,351.6C320.7,351.6,320.8,351.6,320.8,351.6L320.8,351.6z"/>
	<path class="st3" d="M338.9,474.3c-1.3-0.8-2.7-1.5-3.9-2.4c-0.2-0.1-0.5-0.1-0.4-0.4c0.1-0.2,0.4-0.3,0.7-0.3
		c3.4,0,6.6-0.7,9.8-1.3c2.6-0.5,5.1-1.4,7.4-2.4c1.9-0.8,3.5-1.8,5.1-2.9c0.6-0.4,0.9-0.4,1.1,0.2c-0.4,1.5,2.4,5.6,2.6,5.8
		c0.6,1.1,4.5,4.4,4.8,3.7c0,0,6.7-11.7,4.2-19.4c3.1-1.6,6.3-3.2,10.1-4.1c2.5-0.6,5-0.8,7.6-1.2c1.3-0.2,2.7-0.1,4-0.4
		c0.8-0.2,0.8,0.2,0.7,0.5c-0.2,0.5-4,9-5.3,11.3c-0.8,1.4-1.7,2.9-2.8,4.2C370.7,485,340.4,475.3,338.9,474.3 M331.4,464.7
		c27.7-13.4,39.7-28.8,46.4-49.9C383.4,449.1,348.5,463.3,331.4,464.7 M320.5,532.9c17.5-6,33.3-13.4,47.5-22
		c57.9-36.7,62.3-81.9,62.3-81.9s-12.1,10.2-16.1,12.9c-0.7,0.5-1.1,0.7-1.1,0.7c1.5-15.1-0.8-48.6-0.8-48.6
		c-0.1-1.9-0.3-3.6-0.4-5.3c2.7-5.8,4.9-11.9,6.5-18c2.7-10.2,3.6-19.7,3-28.4c-0.2-2.2-0.5-4.3-0.7-6.4c0,0-0.1,0.1-0.1,0.1
		c-0.7,1.9-1.4,3.8-2.2,5.6c-3.4,7.9-7.9,13.8-13.9,17.3c-2.8,1.7-5.6,2.7-8.4,3.7c-1.6,0.6-3.2,1.1-4.9,1.8
		c2.4,3.3,4.6,6.5,6.4,9.5c-6-3.5-12.9-6.7-20.1-9.5c-5.6-2.2-11.4-4.1-17.2-5.8c-1.9-0.6-3.9-1.1-5.9-1.6c-9.5-0.9-19.4,0-27.7,3.1
		c17.3,2.4,33.2,7.9,48.4,17.2c-16-5.4-31.9-7.2-48.7-5.2c10.5,2,20.4,5.1,30.2,9.6c-17.9-2.8-35.9,0.4-36,0.2v136.6
		c0.1,0,0.2,0,0.3,0c0,0,0.1,0,0.1,0c6.3-0.6,18.8-10.3,26.8-17.8c-7.4,12.4-20.3,26.2-26.8,26.8l-0.1,0c-0.1,0-0.2,0-0.3,0
		c0,0,0,0-0.1,0V532.9z"/>
	<path class="st0" d="M470.6,349.6c-1.1,16.3-3.2,35.3-16.7,66.4c-6.7,17.4-23.5,38.1-33.4,50.2c22-32.9,23.7-53,22.8-57.9
		l-20.5,15.5c0.2-3.9-0.1-22.2-0.8-31C439.1,380.9,456.1,366.5,470.6,349.6"/>
	<path class="st0" d="M197.8,408.3c-1,4.9,0.8,25,22.8,57.9c-9.9-12.1-26.7-32.8-33.4-50.2c-13.6-31.1-15.3-50.1-16.5-66.4
		c14.5,16.9,31.2,31.3,48.4,43.2c-0.7,8.9-1,27.1-0.8,31L197.8,408.3z"/>
	<path class="st0" d="M310,464.7c-17.1-1.4-52-15.6-46.4-49.9C270.3,435.9,282.3,451.3,310,464.7 M261.2,450.8
		c3.8,1,6.9,2.5,10.1,4.1c-2.6,7.7,4.2,19.4,4.2,19.4c0.3,0.7,4.2-2.6,4.8-3.7c0.1-0.2,3-4.4,2.6-5.8c0.2-0.6,0.5-0.6,1.1-0.2
		c1.6,1.1,3.2,2.1,5.1,2.9c2.3,1,4.8,1.9,7.4,2.4c3.2,0.6,6.4,1.3,9.8,1.3c0.3,0,0.6,0.1,0.7,0.3c0.1,0.3-0.2,0.3-0.4,0.4
		c-1.2,0.9-2.6,1.6-3.9,2.4c-1.6,0.9-31.8,10.6-45.5-9c-1.1-1.4-1.9-2.8-2.8-4.2c-1.3-2.3-5.1-10.7-5.3-11.3
		c-0.1-0.4-0.1-0.7,0.7-0.5c1.3,0.3,2.7,0.2,4,0.4C256.1,450,258.7,450.2,261.2,450.8 M320.5,351.6c-9.4,0.4-25.6,3.1-39.7,7.2
		c-5.8,1.7-11.6,3.6-17.2,5.8c-7.2,2.8-14.1,6-20.1,9.5c1.8-3,4-6.2,6.4-9.5c-1.6-0.7-3.3-1.2-4.9-1.8c-2.8-1-5.6-2-8.4-3.7
		c-6-3.5-10.6-9.4-13.9-17.3c-0.8-1.9-1.5-3.7-2.2-5.6c0,0-0.1-0.1-0.1-0.1c-0.2,2.1-0.5,4.2-0.7,6.4c-0.6,8.7,0.3,18.2,3,28.4
		c1.6,6.2,3.8,12.2,6.5,18c-0.1,1-0.2,2-0.3,3c-0.1,0.7-0.1,1.5-0.2,2.2c0,0-1.9,27.5-1.1,43.9c0.1,1.7,0.2,3.3,0.3,4.7
		c0,0-0.4-0.3-1.1-0.7c-4-2.7-16.1-12.9-16.1-12.9s0.3,2.8,1.6,7.6c2.6,9.5,9.2,26.6,25.7,45.1c8.7,9.7,20.1,19.8,35.2,29.3
		c14.2,8.5,29.9,15.9,47.4,21.9c0,0,0,0,0,0v-5.3c-6.4-0.1-19.6-14.1-27.2-26.5c8.2,7.6,21.1,17.6,27.1,17.6c0,0,0.1,0,0.1,0V382
		c0.1,0.2,18.1-3,36-0.2c-9.8-4.5-19.7-7.6-30.2-9.6c16.8-2,32.8-0.2,48.7,5.2c-15.3-9.2-31.1-14.8-48.4-17.2
		c8.3-3.1,18.2-4,27.7-3.1c0,0,0,0,0.1,0C343.2,353.8,332.2,352,320.5,351.6C320.5,351.5,320.5,351.5,320.5,351.6
		C320.5,351.6,320.5,351.6,320.5,351.6L320.5,351.6z"/>
	<path class="st3" d="M146.7,333.5c-0.8-4.1-1.4-8.1-2-12.2c-1.7-8.9-2.2-14.1-2.2-14.1c4.2,114.3,89.9,223.6,178.3,247.8v-12.8
		C196.6,499.9,157.9,383.6,146.7,333.5"/>
	<path class="st0" d="M320.8,542.2V555c88.4-24.2,174-133.5,178.3-247.8c0,0-0.5,5.2-2.2,14.1c-0.6,4.1-1.2,8.2-2,12.2
		C483.7,383.6,445,499.9,320.8,542.2"/>
</g>
</svg>
